#!OML:ASF H:\MichaelJackson\Top Level 1\Subject 1\Session 1\male.ASF
:FULLY-SPECIFIED
:DEGREES
870
root 2.98224 13.2726 26.0616 2.00869 62.069 -21.4568
lowerback 35.7764 3.24068 3.26027
upperback 15.2261 6.0208 -3.63469
thorax -0.538113 3.78003 -7.39605
lowerneck -3.5987 -8.48739 1.23885
upperneck 4.5761 -11.3076 -0.85743
head 1.91316 -5.61846 -0.768853
rclavicle -3.47873e-014 3.33958e-014
rhumerus -60.2308 39.8033 -78.2233
rradius 101.412
rwrist -32.3113
rhand -28.7092 -33.3037
rfingers 7.12502
rthumb -2.07088 -423.273
lclavicle -3.47873e-014 3.33958e-014
lhumerus -18.4754 19.4968 70.689
lradius 50.0084
lwrist 20.3864
lhand -27.1053 9.1265
lfingers 7.12502
lthumb -0.521838 39.1056
rfemur -62.356 -7.13106 57.2296
rtibia 85.3296
rfoot -11.2325 34.1502
rtoes 59.8529
lfemur -86.6445 1.87431 -52.2745
ltibia 73.5548
lfoot 27.7948 -8.30486
ltoes 16.5257
871
root 2.99609 13.2461 26.1714 1.98972 61.7414 -21.505
lowerback 35.4022 3.24971 3.43442
upperback 15.1297 6.04697 -3.95397
thorax -0.470743 3.81411 -7.81992
lowerneck -3.42251 -8.61213 1.35169
upperneck 4.71049 -11.5042 -0.377418
head 1.94666 -5.70364 -0.641199
rclavicle -1.11319e-014 -6.61456e-014
rhumerus -60.737 39.3678 -79.1413
rradius 101.365
rwrist -31.6883
rhand -28.6546 -33.0791
rfingers 7.12502
rthumb -2.01816 -423.049
lclavicle -1.11319e-014 -6.61456e-014
lhumerus -18.7415 19.4387 70.1396
lradius 50.0911
lwrist 21.0256
lhand -26.7542 9.08233
lfingers 7.12502
lthumb -0.182656 39.062
rfemur -61.7486 -7.86096 58.0174
rtibia 85.0792
rfoot -10.6557 34.9081
rtoes 60.4104
lfemur -85.6079 1.83841 -52.7447
ltibia 72.838
lfoot 27.1498 -8.7161
ltoes 15.2593
872
root 3.00984 13.2165 26.2838 2.14078 61.3855 -21.4243
lowerback 34.9346 3.3384 3.39769
upperback 15.0281 6.1061 -4.17658
thorax -0.395558 3.8454 -8.03405
lowerneck -3.24464 -8.74309 1.33496
upperneck 4.85378 -11.6981 0.0540976
head 1.9888 -5.78964 -0.508767
rclavicle -3.39922e-014 5.43676e-014
rhumerus -61.2525 39.0532 -79.8978
rradius 101.349
rwrist -31.0834
rhand -28.6129 -32.8992
rfingers 7.12502
rthumb -1.9779 -422.87
lclavicle -3.39922e-014 5.43676e-014
lhumerus -19.055 19.5119 69.7183
lradius 50.117
lwrist 21.5043
lhand -26.4456 9.03478
lfingers 7.12502
lthumb 0.115389 39.0145
rfemur -61.1711 -8.48577 58.7199
rtibia 84.8484
rfoot -10.1131 35.6297
rtoes 60.9793
lfemur -84.6605 1.74147 -53.0364
ltibia 72.188
lfoot 26.3583 -9.07985
ltoes 15.1852
873
root 3.02339 13.1855 26.3983 2.44858 60.9958 -21.2087
lowerback 34.387 3.50303 3.15127
upperback 14.9311 6.19882 -4.30483
thorax -0.305209 3.87555 -8.03978
lowerneck -3.07813 -8.87694 1.18655
upperneck 5.01002 -11.8858 0.434911
head 2.04359 -5.87502 -0.37273
rclavicle 7.31528e-014 -8.85586e-014
rhumerus -61.7671 38.8695 -80.4776
rradius 101.368
rwrist -30.5181
rhand -28.5777 -32.779
rfingers 7.12502
rthumb -1.94382 -422.75
lclavicle 7.31528e-014 -8.85586e-014
lhumerus -19.3969 19.7182 69.4404
lradius 50.09
lwrist 21.7887
lhand -26.182 9.04538
lfingers 7.12502
lthumb 0.369956 39.0248
rfemur -60.6186 -8.99344 59.3065
rtibia 84.6554
rfoot -9.55976 36.333
rtoes 61.5247
lfemur -83.7881 1.60877 -53.2063
ltibia 71.623
lfoot 25.4423 -9.30657
ltoes 16.8294
874
root 3.03614 13.1544 26.5144 2.91117 60.5712 -20.8533
lowerback 33.7703 3.74022 2.69468
upperback 14.8383 6.32522 -4.33991
thorax -0.203856 3.90466 -7.83751
lowerneck -2.92839 -9.01187 0.914761
upperneck 5.18491 -12.0652 0.74901
head 2.11258 -5.95899 -0.239579
rclavicle -2.3059e-014 7.42461e-014
rhumerus -62.2884 38.8237 -80.8772
rradius 101.435
rwrist -30.0099
rhand -28.5318 -32.7239
rfingers 7.12502
rthumb -1.89956 -422.695
lclavicle -2.3059e-014 7.42461e-014
lhumerus -19.7653 20.0594 69.3192
lradius 50.0178
lwrist 21.8581
lhand -25.9763 9.13524
lfingers 7.12502
lthumb 0.568668 39.1142
rfemur -60.1032 -9.37601 59.7599
rtibia 84.5154
rfoot -8.952 37.014
rtoes 62.0152
lfemur -83.0015 1.45899 -53.3079
ltibia 71.1705
lfoot 24.3905 -9.43167
ltoes 20.3073
875
root 3.0483 13.123 26.632 3.48682 60.1132 -20.3852
lowerback 33.0969 4.03568 2.03944
upperback 14.757 6.47722 -4.274
thorax -0.0895045 3.92959 -7.42294
lowerneck -2.79838 -9.13904 0.5077
upperneck 5.37154 -12.2234 0.985325
head 2.19424 -6.03595 -0.110329
rclavicle 4.17448e-014 3.51849e-014
rhumerus -62.802 38.9467 -81.069
rradius 101.559
rwrist -29.5745
rhand -28.4578 -32.7137
rfingers 7.12502
rthumb -1.82806 -422.686
lclavicle 4.17448e-014 3.51849e-014
lhumerus -20.1693 20.5584 69.3682
lradius 49.9198
lwrist 21.7368
lhand -25.8196 9.31577
lfingers 7.12502
lthumb 0.720029 39.2943
rfemur -59.6281 -9.65274 60.0886
rtibia 84.4449
rfoot -8.27814 37.6574
rtoes 62.4321
lfemur -82.2792 1.31029 -53.393
ltibia 70.8414
lfoot 23.1323 -9.55458
ltoes 25.3954
876
root 3.06013 13.0917 26.7502 4.12698 59.6322 -19.8399
lowerback 32.3895 4.35393 1.24853
upperback 14.6921 6.63356 -4.13688
thorax 0.0387362 3.94568 -6.85734
lowerneck -2.68593 -9.24947 0.00593247
upperneck 5.55189 -12.3503 1.14221
head 2.27941 -6.1009 0.00952259
rclavicle -5.96354e-014 3.18055e-014
rhumerus -63.2894 39.2295 -81.08
rradius 101.743
rwrist -29.2065
rhand -28.3418 -32.737
rfingers 7.12502
rthumb -1.71603 -422.71
lclavicle -5.96354e-014 3.18055e-014
lhumerus -20.6005 21.1913 69.5458
lradius 49.8098
lwrist 21.496
lhand -25.6778 9.5725
lfingers 7.12502
lthumb 0.856956 39.5505
rfemur -59.1759 -9.87408 60.3318
rtibia 84.4324
rfoot -7.54409 38.247
rtoes 62.7746
lfemur -81.6128 1.16048 -53.461
ltibia 70.6555
lfoot 21.5773 -9.73505
ltoes 31.2659
877
root 3.07187 13.0603 26.8686 4.7755 59.1428 -19.2651
lowerback 31.6824 4.6555 0.434772
upperback 14.6379 6.77743 -3.98345
thorax 0.174607 3.95408 -6.25751
lowerneck -2.5671 -9.34529 -0.529783
upperneck 5.7065 -12.4534 1.24871
head 2.35504 -6.15647 0.121353
rclavicle 2.5842e-014 -5.34731e-014
rhumerus -63.7584 39.6009 -80.9858
rradius 101.994
rwrist -28.8759
rhand -28.1667 -32.7602
rfingers 7.12502
rthumb -1.54687 -422.734
lclavicle 2.5842e-014 -5.34731e-014
lhumerus -21.0362 21.8623 69.7843
lradius 49.6925
lwrist 21.2474
lhand -25.5331 9.84581
lfingers 7.12502
lthumb 0.996686 39.8232
rfemur -58.7468 -10.0811 60.5234
rtibia 84.4799
rfoot -6.74713 38.7676
rtoes 63.0597
lfemur -80.9885 1.00167 -53.5047
ltibia 70.6116
lfoot 19.6271 -10.0399
ltoes 36.8123
878
root 3.08411 13.0279 26.9869 5.39279 58.6519 -18.6902
lowerback 30.7185 4.89613 -0.271313
upperback 14.7243 6.87214 -3.68089
thorax 0.497872 3.95198 -5.89584
lowerneck -2.42557 -9.42287 -1.04881
upperneck 5.81904 -12.532 1.32494
head 2.41025 -6.2013 0.22502
rclavicle -3.06128e-014 7.21588e-014
rhumerus -64.1876 40.0048 -80.8403
rradius 102.294
rwrist -28.5431
rhand -27.9039 -32.7417
rfingers 7.12502
rthumb -1.29313 -422.717
lclavicle -3.06128e-014 7.21588e-014
lhumerus -21.4582 22.508 70.0246
lradius 49.5687
lwrist 21.0731
lhand -25.3564 10.1251
lfingers 7.12502
lthumb 1.16739 40.1016
rfemur -58.3265 -10.3144 60.6939
rtibia 84.5777
rfoot -5.92543 39.1975
rtoes 63.2829
lfemur -80.3858 0.822189 -53.5055
ltibia 70.6975
lfoot 17.2279 -10.4279
ltoes 41.521
879
root 3.097 12.9929 27.1051 5.97608 58.1617 -18.1345
lowerback 30.072 5.08036 -0.922275
upperback 14.6721 6.94069 -3.63288
thorax 0.641992 3.93768 -5.43166
lowerneck -2.25582 -9.47047 -1.5418
upperneck 5.88228 -12.572 1.38026
head 2.44089 -6.22803 0.322934
rclavicle 1.23246e-014 8.07066e-014
rhumerus -64.537 40.4536 -80.6448
rradius 102.632
rwrist -28.1832
rhand -27.5443 -32.6519
rfingers 7.12502
rthumb -0.945823 -422.63
lclavicle 1.23246e-014 8.07066e-014
lhumerus -21.8645 23.1149 70.2339
lradius 49.4321
lwrist 21.0348
lhand -25.108 10.3909
lfingers 7.12502
lthumb 1.40727 40.366
rfemur -57.9243 -10.5715 60.8648
rtibia 84.7209
rfoot -5.07978 39.5451
rtoes 63.4757
lfemur -79.821 0.614332 -53.456
ltibia 70.8927
lfoot 14.3965 -10.8269
ltoes 45.1841
880
root 3.1107 12.9556 27.2227 6.52329 57.6784 -17.599
lowerback 29.4531 5.19414 -1.44868
upperback 14.6168 6.95928 -3.64633
thorax 0.792367 3.90987 -5.09599
lowerneck -2.04236 -9.4931 -1.98339
upperneck 5.89702 -12.5827 1.4239
head 2.44292 -6.24037 0.414477
rclavicle -2.5842e-014 -8.15017e-015
rhumerus -64.7885 40.9038 -80.4115
rradius 102.987
rwrist -27.76
rhand -27.065 -32.4421
rfingers 7.12502
rthumb -0.482873 -422.421
lclavicle -2.5842e-014 -8.15017e-015
lhumerus -22.2459 23.6389 70.3968
lradius 49.2773
lwrist 21.1499
lhand -24.8078 10.6355
lfingers 7.12502
lthumb 1.69718 40.6085
rfemur -57.5305 -10.8714 61.0395
rtibia 84.8945
rfoot -4.19183 39.8459
rtoes 63.6525
lfemur -79.2883 0.358206 -53.3293
ltibia 71.1678
lfoot 11.197 -11.1216
ltoes 47.8654
881
root 3.12512 12.9165 27.3397 7.05477 57.1983 -17.0719
lowerback 28.8808 5.22661 -1.79554
upperback 14.5471 6.92185 -3.77557
thorax 0.941825 3.87188 -4.9797
lowerneck -1.81274 -9.49706 -2.32202
upperneck 5.89187 -12.5777 1.49224
head 2.4298 -6.24306 0.49987
rclavicle 3.65764e-014 -3.75703e-014
rhumerus -64.9178 41.2701 -80.2021
rradius 103.337
rwrist -27.2475
rhand -26.4482 -32.1097
rfingers 7.12502
rthumb 0.112817 -422.089
lclavicle 3.65764e-014 -3.75703e-014
lhumerus -22.5616 24.0068 70.4635
lradius 49.096
lwrist 21.4091
lhand -24.4501 10.8653
lfingers 7.12502
lthumb 2.04267 40.8352
rfemur -57.1404 -11.2035 61.2077
rtibia 85.0841
rfoot -3.27667 40.1182
rtoes 63.8148
lfemur -78.8028 0.0433351 -53.1135
ltibia 71.4987
lfoot 7.75949 -11.199
ltoes 49.5282
882
root 3.13992 12.8754 27.4563 7.61985 56.7112 -16.5149
lowerback 28.3145 5.2271 -2.09119
upperback 14.466 6.85926 -3.9486
thorax 1.08854 3.82654 -4.93522
lowerneck -1.57277 -9.49047 -2.60987
upperneck 5.88551 -12.5616 1.54505
head 2.40944 -6.23974 0.573768
rclavicle -6.67916e-014 1.09133e-013
rhumerus -64.917 41.5992 -79.9054
rradius 103.686
rwrist -26.6641
rhand -25.7068 -31.6681
rfingers 7.12502
rthumb 0.828915 -421.646
lclavicle -6.67916e-014 1.09133e-013
lhumerus -22.8453 24.2739 70.5368
lradius 48.9024
lwrist 21.7394
lhand -24.0697 11.1087
lfingers 7.12502
lthumb 2.41003 41.0748
rfemur -56.7673 -11.5407 61.3406
rtibia 85.2903
rfoot -2.34309 40.3894
rtoes 63.9636
lfemur -78.3873 -0.33418 -52.8154
ltibia 71.8649
lfoot 4.298 -11.0008
ltoes 50.5495
